:FULLY-SPECIFIED
:FORCE-ALL-JOINTS-BE-3DOF
:DEGREES
1
root -2.95645 16.8291 -36.2757 3.79203 -0.409345 -2.77144
lfemur -18.1857 -3.85478 -7.37129
ltibia 37.6337 0 0
lfoot -17.8071 6.78532 0
ltoes -26.1578 0 0
rfemur -19.1521 0.15077 14.7318
rtibia 40.3652 0 0
rfoot -23.1652 -2.86285 0
rtoes -21.0274 0 0
lowerback 7.02591 2.55716 -1.97249
upperback -3.14202 3.31583 1.27229
thorax -7.43554 1.75645 1.99661
lowerneck -4.68188 -4.04088 -6.84108
upperneck 4.69893 -5.30737 6.47589
head 2.76948 -2.5844 3.14763
lclavicle 1.91563e-15 -9.24349e-15 0
lhumerus -27.0689 -5.33108 89.6453
lradius 25.7364 0 0
lwrist -30.6252 0 0
lhand -28.8405 29.9909 0
lfingers 7.12502 0 0
lthumb -2.19771 59.9594 0
rclavicle 1.91563e-15 -9.24349e-15 0
rhumerus -32.8355 4.71181 -81.727
rradius 32.9783 0 0
rwrist 3.84135 0 0
rhand -24.1523 -25.0894 0
rfingers 7.12502 0 0
rthumb 2.33029 -55.0564 0
2
root -2.95726 16.8257 -36.2792 3.70313 -0.446902 -2.76341
lfemur -18.0786 -3.75655 -7.38977
ltibia 37.5884 0 0
lfoot -17.7826 6.7939 0
ltoes -25.9849 0 0
rfemur -19.0946 0.0970161 14.7308
rtibia 40.3696 0 0
rfoot -23.125 -2.7237 0
rtoes -20.6995 0 0
lowerback 7.18126 2.55793 -1.98605
upperback -3.11228 3.31276 1.27682
thorax -7.49434 1.75559 2.00443
lowerneck -4.69529 -4.03037 -6.84039
upperneck 4.67744 -5.29234 6.48709
head 2.76401 -2.57642 3.15178
lclavicle 2.19724e-15 -9.33616e-15 0
lhumerus -27.0523 -5.33947 89.679
lradius 25.7492 0 0
lwrist -30.5979 0 0
lhand -28.8449 29.9728 0
lfingers 7.12502 0 0
lthumb -2.20196 59.9412 0
rclavicle 2.19724e-15 -9.33616e-15 0
rhumerus -32.8186 4.65637 -81.6977
rradius 32.9104 0 0
rwrist 3.83916 0 0
rhand -24.1543 -25.117 0
rfingers 7.12502 0 0
rthumb 2.32832 -55.0844 0
3
root -2.95806 16.8223 -36.2826 3.62709 -0.480394 -2.75703
lfemur -17.9827 -3.68122 -7.40414
ltibia 37.5416 0 0
lfoot -17.7573 6.8093 0
ltoes -25.8543 0 0
rfemur -19.0424 0.0560681 14.7309
rtibia 40.3661 0 0
rfoot -23.0874 -2.60637 0
rtoes -20.4284 0 0
lowerback 7.31465 2.5592 -1.99846
upperback -3.08626 3.31086 1.28087
thorax -7.5444 1.75524 2.01163
lowerneck -4.70943 -4.02137 -6.83998
upperneck 4.65859 -5.27933 6.49744
head 2.7597 -2.56946 3.15561
lclavicle 2.44793e-15 -9.42216e-15 0
lhumerus -27.0383 -5.34779 89.7085
lradius 25.7612 0 0
lwrist -30.5742 0 0
lhand -28.8488 29.9568 0
lfingers 7.12502 0 0
lthumb -2.20569 59.9252 0
rclavicle 2.44793e-15 -9.42216e-15 0
rhumerus -32.8042 4.60928 -81.6735
rradius 32.8533 0 0
rwrist 3.83875 0 0
rhand -24.1605 -25.1393 0
rfingers 7.12502 0 0
rthumb 2.32242 -55.1071 0
4
root -2.95887 16.8189 -36.2861 3.56298 -0.510044 -2.75215
lfemur -17.8975 -3.62673 -7.41477
ltibia 37.494 0 0
lfoot -17.7317 6.83064 0
ltoes -25.7623 0 0
rfemur -18.9954 0.026772 14.7321
rtibia 40.3558 0 0
rfoot -23.0524 -2.50924 0
rtoes -20.2098 0 0
lowerback 7.42761 2.56092 -2.00977
upperback -3.06374 3.31001 1.28446
thorax -7.58635 1.75536 2.01824
lowerneck -4.72412 -4.01378 -6.83982
upperneck 4.64224 -5.2682 6.50698
head 2.75645 -2.56345 3.15912
lclavicle 2.66943e-15 -9.50164e-15 0
lhumerus -27.0267 -5.35599 89.7341
lradius 25.7724 0 0
lwrist -30.5538 0 0
lhand -28.8521 29.9427 0
lfingers 7.12502 0 0
lthumb -2.20892 59.9111 0
rclavicle 2.66943e-15 -9.50164e-15 0
rhumerus -32.7922 4.56995 -81.6538
rradius 32.8063 0 0
rwrist 3.83993 0 0
rhand -24.1702 -25.1566 0
rfingers 7.12502 0 0
rthumb 2.31305 -55.1249 0
5
root -2.95967 16.8155 -36.2895 3.5099 -0.536076 -2.74863
lfemur -17.8222 -3.59104 -7.42202
ltibia 37.4459 0 0
lfoot -17.7058 6.85704 0
ltoes -25.7049 0 0
rfemur -18.9533 0.00797362 14.7341
rtibia 40.3394 0 0
rfoot -23.0201 -2.43066 0
rtoes -20.0391 0 0
lowerback 7.52167 2.56302 -2.02001
upperback -3.04447 3.31009 1.28762
thorax -7.62082 1.75588 2.02427
lowerneck -4.73916 -4.00748 -6.83988
upperneck 4.6282 -5.25882 6.51573
head 2.75416 -2.55833 3.16232
lclavicle 2.86345e-15 -9.57474e-15 0
lhumerus -27.0173 -5.36403 89.7562
lradius 25.7829 0 0
lwrist -30.5366 0 0
lhand -28.855 29.9305 0
lfingers 7.12502 0 0
lthumb -2.21171 59.8989 0
rclavicle 2.86345e-15 -9.57474e-15 0
rhumerus -32.7825 4.53775 -81.6383
rradius 32.7685 0 0
rwrist 3.8425 0 0
rhand -24.1829 -25.1695 0
rfingers 7.12502 0 0
rthumb 2.30072 -55.1383 0
6
root -2.96048 16.8121 -36.293 3.46692 -0.558711 -2.74633
lfemur -17.7564 -3.5721 -7.42625
ltibia 37.3979 0 0
lfoot -17.6801 6.88764 0
ltoes -25.6783 0 0
rfemur -18.9159 -0.00148095 14.7368
rtibia 40.318 0 0
rfoot -22.9903 -2.36901 0
rtoes -19.9117 0 0
lowerback 7.59839 2.56542 -2.02924
upperback -3.02821 3.31099 1.29037
thorax -7.64845 1.75676 2.02974
lowerneck -4.75439 -4.00237 -6.84014
upperneck 4.61632 -5.25106 6.5237
head 2.75272 -2.55404 3.16523
lclavicle 3.03172e-15 -9.64161e-15 0
lhumerus -27.0098 -5.37184 89.7748
lradius 25.7926 0 0
lwrist -30.5223 0 0
lhand -28.8574 29.9201 0
lfingers 7.12502 0 0
lthumb -2.21407 59.8884 0
rclavicle 3.03172e-15 -9.64161e-15 0
rhumerus -32.7747 4.51208 -81.6266
rradius 32.739 0 0
rwrist 3.84626 0 0
rhand -24.1983 -25.1783 0
rfingers 7.12502 0 0
rthumb 2.2859 -55.1476 0
